<mxfile host="app.diagrams.net" agent="Mozilla/5.0 (Windows NT 10.0; Win64; x64) AppleWebKit/537.36 (KHTML, like Gecko) Chrome/138.0.0.0 Safari/537.36" version="28.0.7">
  <diagram name="Page-1" id="DVOl-r8eL0w-2PGuKQtP">
    <mxGraphModel dx="1042" dy="663" grid="1" gridSize="10" guides="1" tooltips="1" connect="1" arrows="1" fold="1" page="1" pageScale="1" pageWidth="850" pageHeight="1100" math="0" shadow="0">
      <root>
        <mxCell id="0" />
        <mxCell id="1" parent="0" />
        <mxCell id="RH7rzvKFZBX_30xBIcqy-1" style="edgeStyle=orthogonalEdgeStyle;rounded=0;orthogonalLoop=1;jettySize=auto;html=1;" edge="1" parent="1" source="RH7rzvKFZBX_30xBIcqy-2">
          <mxGeometry relative="1" as="geometry">
            <mxPoint x="440" y="460" as="targetPoint" />
            <Array as="points">
              <mxPoint x="400" y="460" />
            </Array>
          </mxGeometry>
        </mxCell>
        <mxCell id="RH7rzvKFZBX_30xBIcqy-2" value="" style="rounded=0;whiteSpace=wrap;html=1;rotation=-90;dashed=1;" vertex="1" parent="1">
          <mxGeometry x="325" y="205" width="150" height="120" as="geometry" />
        </mxCell>
        <mxCell id="RH7rzvKFZBX_30xBIcqy-3" value="" style="outlineConnect=0;dashed=0;verticalLabelPosition=bottom;verticalAlign=top;align=center;html=1;shape=mxgraph.aws3.volume;fillColor=#60a917;fontColor=#ffffff;strokeColor=#2D7600;" vertex="1" parent="1">
          <mxGeometry x="350" y="270" width="40" height="55" as="geometry" />
        </mxCell>
        <mxCell id="RH7rzvKFZBX_30xBIcqy-4" value="Availability Zone 1" style="text;whiteSpace=wrap;fontStyle=1" vertex="1" parent="1">
          <mxGeometry x="340" y="190" width="120" height="40" as="geometry" />
        </mxCell>
        <mxCell id="RH7rzvKFZBX_30xBIcqy-5" value="EBS" style="text;whiteSpace=wrap;fontStyle=1" vertex="1" parent="1">
          <mxGeometry x="400" y="285" width="37.5" height="40" as="geometry" />
        </mxCell>
        <mxCell id="RH7rzvKFZBX_30xBIcqy-6" style="edgeStyle=orthogonalEdgeStyle;rounded=0;orthogonalLoop=1;jettySize=auto;html=1;" edge="1" parent="1" source="RH7rzvKFZBX_30xBIcqy-7">
          <mxGeometry relative="1" as="geometry">
            <mxPoint x="530" y="460" as="targetPoint" />
            <Array as="points">
              <mxPoint x="565" y="460" />
              <mxPoint x="530" y="460" />
            </Array>
          </mxGeometry>
        </mxCell>
        <mxCell id="RH7rzvKFZBX_30xBIcqy-7" value="" style="rounded=0;whiteSpace=wrap;html=1;rotation=-90;dashed=1;" vertex="1" parent="1">
          <mxGeometry x="490" y="205" width="150" height="120" as="geometry" />
        </mxCell>
        <mxCell id="RH7rzvKFZBX_30xBIcqy-8" value="" style="outlineConnect=0;dashed=0;verticalLabelPosition=bottom;verticalAlign=top;align=center;html=1;shape=mxgraph.aws3.volume;fillColor=#60a917;fontColor=#ffffff;strokeColor=#2D7600;" vertex="1" parent="1">
          <mxGeometry x="512.5" y="270" width="37.5" height="55" as="geometry" />
        </mxCell>
        <mxCell id="RH7rzvKFZBX_30xBIcqy-9" value="Availability Zone 2" style="text;whiteSpace=wrap;fontStyle=1" vertex="1" parent="1">
          <mxGeometry x="505" y="190" width="120" height="40" as="geometry" />
        </mxCell>
        <mxCell id="RH7rzvKFZBX_30xBIcqy-10" value="EBS" style="text;whiteSpace=wrap;fontStyle=1" vertex="1" parent="1">
          <mxGeometry x="560" y="285" width="37.5" height="40" as="geometry" />
        </mxCell>
        <mxCell id="RH7rzvKFZBX_30xBIcqy-11" value="" style="outlineConnect=0;dashed=0;verticalLabelPosition=bottom;verticalAlign=top;align=center;html=1;shape=mxgraph.aws3.volume;fillColor=light-dark(#FFFFFF,#2EFF30);fontColor=#ffffff;strokeColor=#005700;gradientColor=default;" vertex="1" parent="1">
          <mxGeometry x="460" y="390" width="52.5" height="75" as="geometry" />
        </mxCell>
        <mxCell id="RH7rzvKFZBX_30xBIcqy-12" value="" style="sketch=0;outlineConnect=0;fontColor=#232F3E;gradientColor=none;fillColor=#7AA116;strokeColor=light-dark(#000000,#0A0A0A);dashed=0;verticalLabelPosition=bottom;verticalAlign=top;align=center;html=1;fontSize=12;fontStyle=0;aspect=fixed;pointerEvents=1;shape=mxgraph.aws4.bucket;strokeWidth=10;perimeterSpacing=3;" vertex="1" parent="1">
          <mxGeometry x="450" y="410" width="75" height="78" as="geometry" />
        </mxCell>
        <mxCell id="RH7rzvKFZBX_30xBIcqy-13" value="EBS Snapshot" style="text;whiteSpace=wrap;fontStyle=1" vertex="1" parent="1">
          <mxGeometry x="440" y="488" width="120" height="40" as="geometry" />
        </mxCell>
        <mxCell id="RH7rzvKFZBX_30xBIcqy-14" value="" style="sketch=0;outlineConnect=0;fontColor=#232F3E;gradientColor=none;fillColor=#ED7100;strokeColor=none;dashed=0;verticalLabelPosition=bottom;verticalAlign=top;align=center;html=1;fontSize=12;fontStyle=0;aspect=fixed;pointerEvents=1;shape=mxgraph.aws4.ec2_m1_mac_instance;" vertex="1" parent="1">
          <mxGeometry x="361" y="212" width="18" height="18" as="geometry" />
        </mxCell>
        <mxCell id="RH7rzvKFZBX_30xBIcqy-15" value="" style="endArrow=classic;startArrow=classic;html=1;rounded=0;exitX=0.5;exitY=0;exitDx=0;exitDy=0;exitPerimeter=0;" edge="1" parent="1" source="RH7rzvKFZBX_30xBIcqy-3">
          <mxGeometry width="50" height="50" relative="1" as="geometry">
            <mxPoint x="330" y="270" as="sourcePoint" />
            <mxPoint x="370" y="230" as="targetPoint" />
          </mxGeometry>
        </mxCell>
        <mxCell id="RH7rzvKFZBX_30xBIcqy-16" value="Snapshot" style="text;html=1;align=center;verticalAlign=middle;whiteSpace=wrap;rounded=0;" vertex="1" parent="1">
          <mxGeometry x="340" y="390" width="60" height="30" as="geometry" />
        </mxCell>
        <mxCell id="RH7rzvKFZBX_30xBIcqy-17" value="Restore" style="text;html=1;align=center;verticalAlign=middle;whiteSpace=wrap;rounded=0;" vertex="1" parent="1">
          <mxGeometry x="565" y="390" width="60" height="30" as="geometry" />
        </mxCell>
      </root>
    </mxGraphModel>
  </diagram>
</mxfile>
